<svg version="1.2" xmlns="http://www.w3.org/2000/svg" viewBox="0 0 744 248" width="744" height="248"><style>.a{fill:#f0dcc7}.b{fill:#fd8c83}</style><path class="a" d="m181.8 21.6l46.9-12.6q0.7-0.2 1.3-0.2 0.8-0.1 1.4-0.1 2.7 0 4.3 1.8 1.7 1.6 2.3 6 0.3 2.7 0.9 7.6 0.7 4.8 1.5 10.8 0.9 5.9 1.8 12.2 1 6.3 1.8 11.7 0.7 5.3 1.3 9.2 0.6 3.7 0.8 4.8 3.3 26.6 5.8 42.6 2.6 16.1 3.6 23.7l10.1 81.3-1.5 4.6q-0.3 1.1-3.9 2.6-3.6 1.5-8.7 3.3-5.1 1.7-11.1 3.3-6 1.7-11.1 3-5.1 1.4-8.7 2.3-3.5 0.7-3.6 0.7-3.7 0-5.8-5.2-2.1-5.3-3.4-13.4-1.4-8.1-2.3-17.7-0.7-9.6-1.8-18.5-0.9-7.4-1.6-14.9-0.8-7.5-1.7-15.3l-5.8-43.8-55.7 101.9q-2.6 3.6-5.1 5.3-2.6 1.5-4.8 1.5-3.3 0-5.3-2-1.8-1.9-2.6-4.8-2.8-9.4-4.9-15.9-2-6.6-3.8-12-1.6-5.4-3.1-10.5-1.5-5.1-3.5-11.7-1.8-6.8-4.2-15.8-2.2-9.2-5.5-22.4l-4.7 21.7-21.6 91.7q-0.5 1.8-3.8 1.8-3.1 0-8.7-1.2-5.4-1.2-11.4-2.8-5.8-1.8-11.6-3.6-5.5-2-8.8-3.5-0.8-0.3-2-1.4-1-1.2-1-3.6 0-0.6 0.4-2.5 0.5-2 1.1-4.5 0.7-2.7 1.5-5.4 0.9-2.7 1.6-4.8 2-5.1 3.5-12 1.6-6.9 3-14 1.4-7.1 2.4-13.5 1.2-6.5 2.3-10.8l18.4-86.2 5.6-24.4q1-4.6 1.9-9 1.1-4.5 1.8-8.1 0.8-3.6 1.2-5.8 0.5-2.3 0.5-2.6l37.5-11.5q2.1 0 3.6 0.4 1.7 0.3 2.1 2.4l29.9 96.1zm357.7 206.5q-3-0.8-4-2.3-1.1-1.6-1.1-3.6 0-0.4 0-0.6 0.2-0.1 0.2-0.6 1.2-16.2 2.5-33.9 1.5-17.9 3.2-36.2 1.6-18.5 3.3-36.8 1.6-18.3 3.3-35.6h-0.2q-0.6 0-3.4 1.1-2.7 0.9-6.3 2.1-3.5 1-7.1 1.9-3.6 0.9-5.9 0.9-1.9 0-2.8-1.5-0.8-1.5-0.8-3.3 0-1.3 0.5-2.5 4.1-11.7 8.4-21.9 4.4-10.3 8.7-21.1 11.4-6.1 23.7-10.6 12.4-4.7 24.8-7.7 12.6-3.1 25.1-4.6 12.5-1.7 24.2-1.7 16.3 0 30.8 3.5 14.5 3.4 25.2 10.5 10.8 6.9 17 17.5 6.3 10.5 6.3 24.8 0 6.2-2.7 11.9-2.7 5.7-7.1 10.9-4.2 5.1-9.5 9.6-5.2 4.4-10.3 8 7.2 5.3 12.9 9.6 5.9 4.2 9.9 8.9 4.1 4.6 6.2 10.5 2.1 5.7 2.1 14 0 12.6-4.5 24.1-4.4 11.4-12.2 21.4-7.7 9.7-18.3 17.7-10.5 7.9-23 13.6-12.3 5.6-26.1 8.8-13.7 3-27.7 3-5.1 0-13.6-1.1-8.6-1-18-2.4-9.4-1.5-18.5-3.2-9-1.8-15.2-3.1zm69.2-164.7q-2.8 17.7-4.8 36-1.9 18.2-3.4 35.4-1.4 17.2-2.4 32.6-1.1 15.5-2.1 27.7 6 0 12.9-0.6 7.1-0.8 14-2.4 6.9-1.7 13.3-4.3 6.6-2.7 11.6-6.6 4.9-3.9 7.9-9.1 3.1-5.4 3.1-12.3 0-4.2-2.6-7.4-2.6-3.3-6.6-5.5-3.9-2.4-8.7-4-4.8-1.6-9.5-2.5-4.5-1.1-8.4-1.5-3.7-0.6-5.7-0.9-2.1-0.3-2.7-1.5-0.6-1.2-0.6-3 0-2 2.4-5.9 2.4-3.9 6.6-10.6l6.3-10.1q4.1-1.5 8.7-3.7 4.8-2.3 8.9-5.2 4-3 6.7-6.6 2.7-3.7 2.7-8.1 0-12.3-5.4-18.7-5.2-6.6-15.3-6.6-11.4 0-26.9 5.4z"/><path class="b" d="m284.5 185.4q0-4.7 0.3-8.9 0.5-4.3 2.1-8.8 1.7-4.5 5.1-9.3 3.6-5 9.8-11 6.2-6 15.5-13.4 9.4-7.3 22.9-16.6-9.4-12.6-13.9-25.4-4.5-12.8-4.5-24.9 0-11.3 5.2-21.2 5.4-9.9 15.8-17.3 10.4-7.5 25.4-11.7 15.1-4.3 34.8-4.3 4.1 0 9.2 1 5.2 0.9 10.5 3 5.4 2.1 10.5 5.6 5.1 3.4 9 8.5 4.1 5 6.5 11.6 2.5 6.6 2.5 15.2 0 7.9-2.7 14.4-2.5 6.3-7.9 12.9-5.3 6.4-13.6 14-8.1 7.3-19.2 17.2l35.8 28.7q1.6 1.5 3.1 2.9 1.7 1.3 3.5 1.2 0.7-1.2 1.5-1.4 0.9-0.1 1.8-0.1l34.1-31.7q2.7 1 6.7 4.2 4.2 3.1 8 7 3.9 3.9 6.6 8.1 2.7 4.1 2.7 7 0 1.8-0.6 2.8l-27.2 28.7 1.7 1.3q1.3 0.9 3.1 2.4 2 1.4 4.2 3.2 2.4 1.6 5 3.6 2.7 1.8 5.4 3.6 1.5 1.1 1.8 2.3 0.3 1.2 0.3 1.5 0 2.1-1.8 5.2-1.8 3.2-4.7 6.8-2.7 3.6-6.1 7.5-3.3 3.7-6.6 7.2-3.4 3.3-6.2 6.1-2.9 2.7-4.4 4.1-1.5 1.5-3.1 1.5-1.2 0-2.1-0.9l-30.2-18.5q-15.2 8.1-26.7 13.4-11.4 5.2-21.5 8.4-9.9 3.2-19.5 4.4-9.5 1.2-20.9 1.2-12.6 0-24.6-3.2-12-3.1-21.5-9.6-9.3-6.6-15.2-16.4-5.7-9.7-5.7-23.1zm65.2-9.6q0 3.3 0.9 6.7 0.9 3.4 3.2 6.2 2.2 2.7 6.1 4.5 3.9 1.8 10.1 1.8 1.9 0 5.4-0.3 3.4-0.3 7.8-1.6 4.3-1.4 9.6-4.1 5.4-2.8 11.3-7.8l-35.8-34.7q-3.3 1.8-6.6 4.1-3.3 2.2-6 5.7-2.7 3.3-4.3 8.1-1.7 4.6-1.7 11.4zm41.6-128.1q-4.8 0-8.4 1.5-3.5 1.5-5.7 4.1-2.3 2.4-3.5 5.7-1 3.1-1 6.7 0 5.6 2.4 11.4 2.5 5.7 7.3 10.1 11.8-7.8 16.7-15.2 5.1-7.5 5.1-13.2 0-5.1-3.4-8.1-3.5-3-9.5-3z"/></svg>