<svg version="1.2" xmlns="http://www.w3.org/2000/svg" viewBox="0 0 1169 248" width="1169" height="248"><style>.a{fill:#fbdfc7}.b{fill:#e8457c}.c{fill:#fdf9f5}.d{fill:#fefefe}.e{fill:#fdfbf9}.f{fill:#fdfaf7}.g{fill:#fdfaf8}.h{fill:#fdf8f3}.i{fill:#fdf4f3}.j{fill:#fdf9f6}.k{fill:#fdf7f2}.l{fill:#fdf8f4}.m{fill:#fdf7f1}</style><path class="a" d="m-658-954h2048v2048h-2048z"/><path class="b" d="m-396-151h46l30 5 22 6 21 8 19 10 14 8 17 12 17 14 14 14 9 11 8 10 10 15 9 16 6 12 8 20 7 24 4 19 2 18v37l-3 25-7 28-7 20-10 22-11 19-11 15-11 14-19 19-14 11-12 9-19 12-15 8-20 8-15 5-22 5-28 4h-35l-22-3-23-5-26-8-18-8-21-11-17-12-16-13-25-25-8-10-10-15-10-18-8-16-10-25-5-20-4-24-2-20v-21l3-26 6-27 7-21 9-20 9-17 10-16 14-18 7-7 7-8 7-7 11-9 10-8 15-10 16-9 17-8 20-7 22-6 22-4z"/><path class="c" d="m-422-55h23l1 16v18l10 1 10 6 2 4 11-8 7-3h7v-32l1-2h27l1 1 1 42 5 5-2 13-5 14-7 15-2 8 1 9 4 10 4 5 5 4 7 8 11 14 13 18 11 18 13 27 9 23 4 15 1 6-4 4-14 5-19 4-15 2-2 1-1 8-12 5-23 5-18 2h-36l-24-3-20-5-8-4-2-6 1-4-16-1-21-4-12-4-5-3 1-9 7-24 9-21 12-23 10-16 10-14 11-13 18-21 4-10v-12l-3-10-8-16-4-15 1-6 4-3 1-43z"/><path class="d" d="m762 18h64l19 2 15 5 14 8 10 9 7 10 3 6 2 7v27l-4 13-5 10-5 6-13 10-15 7 7 12 9 12 36 60v3l-4 1h-36l-6-3-12-20-15-23-12-19-10-14-1-3-4-2h-8l-3 1-1 2v33l1 47-1 1h-40v-102l1-18 3-2 15-2h12l-8-11-16-24-4-8-1-3-2-35 1-2z"/><path class="d" d="m555 15h16l15 4 16 7 10 7 10 9 8 10 7 14 3 10 1 8v18l-3 14-7 16-10 13-9 9-11 7-10 5-17 5h-22l-13-3-16-7-10-7-12-12-9-14-5-10-3-11v-21l3-16 8-16 7-10 9-9 14-10 9-5z"/><path class="d" d="m1074 13l4 2 8 20 11 27 15 39 12 30 16 43 15 38 4 10-1 4-22 1-16-2-5-4-6-15v-3l-49 1h-22l-4 17-3 5h-40l1-6 17-45 16-41 14-36 15-40 16-40z"/><path class="b" d="m-399 61h48l5 12 15 40 9 27 7 29 3 19v29l-1 2-24 5-18 2h-43l-21-3-15-4-4-3v-20l2-16 6-29 8-27 10-28 10-26z"/><path class="d" d="m34 18h72l53 1 2 1 1 36-1 1h-101l1 46h20l42 1 22 1v35l-1 1-53 1h-31v84l-11 1h-24l-5-1-1-20v-131l1-56z"/><path class="d" d="m268 18h25l12 1 1 1 1 134v34h56l19 1 1 3v34l-2 1h-115l-1-1v-206z"/><path class="d" d="m527 188h32l70 1 3 2 1 33-2 2-63 1h-25l-52-1v-37z"/><path class="a" d="m560 53l12 1 9 4 9 6 6 7 4 8 1 3v15l-3 12-6 11-10 9-7 3h-17l-12-3-10-6-8-10-4-8-2-12 2-10 4-9 4-6 5-6 8-5 9-3z"/><path class="b" d="m-341 60l5 4 4 6 14 14 7 8 8 11 7 11 10 15 14 28 8 21 4 16-1 4-19 5-16 2h-6l-1-1-2-25-5-25-7-25-9-27-9-23-6-17z"/><path class="b" d="m-409 60l1 2-15 40-13 40-6 24-3 19-2 20-14-1-17-3-11-3-1-3 6-20 10-24 12-23 14-22 10-13 11-13 9-9 7-9z"/><path class="b" d="m-404-12h11l7 4 5 5 4 6 4 1 7-10 8-5 9-1 11 2 12 6v7l-7 16-8 16h-68l-5-12-7-15-2-9 1-4 13-6z"/><path class="d" d="m1075 328h16l10 5 6 7 4 13 1 14-3 11-6 9-9 6-4 1h-16l-8-3-8-7-4-7-2-9v-9l3-13 6-10 8-6z"/><path class="d" d="m1150 328l23 1 15 2 5 4 1 2v18l-1 3-4 1v3l-2 2 2 1 5 12 3 17-1 1h-10l-4-16-6-12-15-1 1 10v18l-1 1-10-1-1-1-1-43v-21z"/><path class="d" d="m1234 328h41l1 1v9l-1 1h-30l1 16h28v9h-28v19h31l1 1v8l-2 1-38 1-5-1v-64z"/><path class="a" d="m818 56h16l13 5 8 9 3 8-1 8-7 10-10 7-7 1-7-7-12-18-12-17-2-4 4-1z"/><path class="d" d="m911 328h12l14 4 2 2v3h-3l-2 4-8-1-2-2-8 1-9 5 1 5 3 3 18 5 6 3 5 4 2 3v12l-5 10-3 3-11 2h-12l-9-3-7-4-2-6 4-4h6l11 5 13-1 2-1v-8l-6-5-16-5-6-4-6-5-2-4 1-8 4-7 7-5z"/><path class="a" d="m1077 338h11l6 5 4 7 1 4v20l-3 5-5 4-2 1h-12l-6-3-5-6-2-9v-10l3-9 6-7z"/><path class="a" d="m1075 107l2 3 17 52v6h-41l3-11 15-41z"/><path class="d" d="m1000 328l18 1 6 2-1 5-3 2-9 1h-10v55l-5 1-7-1v-54l-15-1-5-2 2-6 2-1z"/><path class="e" d="m-234-96l5 1 10 8 4 4-1 5-11 16-8 12-4-1-6-4 2-4 2-5-3 1-3 4-4-1-6-3 2-5 10-15 6-8z"/><path class="f" d="m-388-138h8l6 3 2 6 1 7v16l-2 5-4 3-3 1h-9l-5-3-3-9-1-8v-11l2-6 4-3z"/><path class="g" d="m-312-132l6 3 14 4 2 1v7l-3 8-2 2h-3v3h2l-1 13-1 6-6-1-5-3 2-14-3-1-2 11-2 3-8-1-2-4 10-35z"/><path class="h" d="m-383 259h10l4 2 1 7v14l-3 7-2 1h-12l-3-2-1-3v-21l2-4z"/><path class="i" d="m-342 259h19l1 2v29l-5 1-4-2-1-10h-3l1 11h-8l-1-1v-29z"/><path class="f" d="m-524-92l4 1 2 3v3l-3 2 2 5 5-2 5 5-1 4-2 1 1 4 5 6v5l-5 4-4-2-10-13-10-14-2-3 9-7z"/><path class="b" d="m-407 44l66 1v7l-1 1h-53l-13-1v-7z"/><path class="j" d="m-464-123l5 1 4 13 5 13v2l4-2 4 1v7l-5 3-9 2-2-1-10-28-1-9z"/><path class="k" d="m-294 259h13l1 1v5l-1 1-7-1v6h7l1 1v5l-7 2h-2l1 3 7 1 1 1v5l-1 1h-13l-2-2-1-5v-18l2-5z"/><path class="a" d="m1161 338h21v18l-9 2h-11l-1-1z"/><path class="l" d="m-466 259h12l1 1v5l-5 1h-3v5h6l2 1v15l-2 3h-13l-2-2 1-4h8l-1-4-6-4-1-2v-11z"/><path class="b" d="m-418-46h11v26l-11 3-1-10v-18z"/><path class="m" d="m-429 259h16l1 3-3 5-2 23h-8l-1-23-4-7z"/><path class="b" d="m-341-46l10 1v20l-1 8-10-4v-24z"/><path class="b" d="m-387-129l4 1 1 10v12h-4z"/><path class="b" d="m-380 265h3v19h-3l-1-18z"/><path class="b" d="m-231-84l3 1-1 5-5 7h-3l1-6z"/><path class="b" d="m-306-119h4l-1 7-4-1z"/></svg>